<?xml version="1.0" encoding="UTF-8"?>
<svg xmlns="http://www.w3.org/2000/svg" viewBox="0 0 1920 1080">
  <g id="Objects">
    <g id="HookHat">
      <g>
        <path d="M669.65,839.11c-.31.78-2.3,1.64-3.11,1.57l-16.77-1.47c-12.8-1.12-25.36-1.15-38.04.9-11.72,1.89-20.78,6.77-30.28,15.73,1.82-8.35,7.51-14.47,13.2-20.36,3.78-3.92,8.27-6.8,13.63-8.31,12.4-3.51,24.8-4.72,37.47-5.79-1.08-.84-2.65-1.32-4.19-1.41-13.46-.77-26.52,1.76-39.35,6.74,5.06-14.04,6.83-27.76,6.52-42.23,8.63-4.53,17.53-7.41,27-8.79l24.07-3.5c12.96-1.88,24.01-7.13,33.67-16.87l-3.28,25.61-10.06,4.19,7.82.62c-1.52,10.22-3.71,19.58-7.67,28.61l-13.12,4.05c3.82,1.02,6.09.2,10.17.11-2.37,7.01-4.93,13.8-7.67,20.62ZM637.37,791.91c1.9-.45,3.57-.99,4.32-3.06-8.47.97-17.2,2.26-23.86,8.5,6.61-1.92,12.66-3.83,19.53-5.45ZM665.94,798.04l-6.12-14.64c-6.04,6.25-10.91,11.79-15.81,18.21l10.47,11.63,11.46-15.2ZM633.16,807.53c1.3-.37,2.54-1.69,1.86-2.7-5.85.8-17.64,3.33-20.63,8.1l18.78-5.4Z"/>
        <path d="M635.02,804.84c.69,1.01-.56,2.32-1.86,2.7"/>
        <polygon points="661.84 797.73 654.32 807.84 648.46 801.04 658.26 789.61 661.84 797.73"/>
      </g>
      <g>
        <g>
          <path d="M578.67,778.18c-16.81,8.19-50.56,13.01-69.46,14.46-5.99.46-11.56.64-17.6-.68,10.19-4.72,17.29-11.64,22.44-20.93,3.09.13,6.47.14,8.09-2.46l-6.91-.3c3-7.94,4.22-14.96,3.59-23.1l-.73-9.49c29.2-5.22,46.03-20.69,59.56-46.86,5.46,16.67,11.32,39.9,9.94,56.82-.25,4.69-.64,8.55-2.18,13.64l-4.46-5.35c-1.22,6.36-9.54,12.51-13.44,16.9,5.02-1.45,8.4-3.71,13.06-6.67-.05,4.89-.67,9.46-1.91,14.02ZM563.91,725.27l6.18-5.56c2.62-2.35,4.86-5.51,4.85-9.06-4.01,5.15-11.81,11.28-13.44,14.61-.17.35,2.12.27,2.42,0ZM536.11,757.87c-.9-6.53,2.32-12.31,7.69-15.32,2.68-1.5,6.15-2.25,8.6-.34,4.02,3.14,4.75,8.47,2.83,13.26-4.9,12.25-16.77,19.84-30,20.85,3.96,2.32,8.32,1.3,12.3.03,10.02-3.22,18.07-10,21.43-19.88,1.78-5.23,1.56-10.51-1.64-15.12-3.14-4.52-8.65-5.83-13.77-3.26-7.62,3.83-12.41,12.41-11.3,20.95.34,2.62,2.36,5.24,4.54,6.11,6.07,2.39,12.38-5.02,14.21-10.96.68-2.22-.18-5.83-2.42-6.42-4.23-1.12-7.33,4.6-6.96,7.61.04.31,1.53,1.14,1.64.83l.52-1.55c.59-1.75,2.28-4.07,4.12-3.22.69,4.98-3.9,9.51-8.75,9.79-1.09.06-2.84-2-3.02-3.36ZM565.71,737.8c5.08-.51,7.88-4.45,7.96-8.61l-7.96,8.61ZM573.8,746.03c-2.65.27-5.04,1.07-6.86,3.24-.12,1.49,7.77-.35,6.86-3.24Z"/>
          <path d="M570.08,719.71l-6.18,5.56c-.3.27-2.59.34-2.42,0"/>
        </g>
        <g>
          <path d="M743.69,678.81c5.3,7.03,5.63,16.45,4.2,25.11-21.38,10.41-57.28,2.37-68.47,29.42-15.96-16.51-32.76-33.87-56.09-36.86,9.07-17.32,31.72-25.6,49.74-26.63,12.92-.73,27.96-1.92,38.4-10.15l20.2,22.69c-6.46,9.65-15.87,15.21-27.09,19.28,9.68.85,17.74-3.92,25.34-8.81,5.03-3.88,8.73-8.11,13.77-14.05ZM682.12,707.49l5.6-15.1-21.11-7.54c-2.19,5.93-3.6,11.05-5.17,17.13l20.67,5.51ZM705.25,677.16c-6.02,0-11.18,2.1-15.92,5.26,5.87.21,11.77-1.6,15.92-5.26ZM717.91,684.03c-6-.71-11.27,1.11-15.83,4.35,5.69.26,11.31-1.26,15.83-4.35Z"/>
          <polygon points="678.62 703.35 665.54 699.71 668.6 688.81 681.83 693.6 678.62 703.35"/>
        </g>
      </g>
    </g>
    <g>
      <g>
        <path d="M1464.86,939.67c-11.4,2.32-21.9,7.14-30.05,15.92-2.74,2.95-5.03,4.83-10.42,7.48l12.08-81.88,36.49.11-8.1,58.37Z"/>
        <path d="M1517.51,966.94c-1.97,2.08-8.08,2.01-10.42.3-1.27-5.32-2.86-11.98-3.81-17.59l-11.35-67.32c3.21-.75,6.62-1.05,10.17-1l11.5,67.17,3.91,18.43Z"/>
        <g>
          <g>
            <path d="M1603.11,1034.15c-50.36,20.33-39.79,22.97-92.56.81,5.22-5.21,9.51-6.41,14.4-7.79,19.64,12.85,43.55,12.63,63.13.32,4.43-2.79,11.85.62,15.03,6.67Z"/>
            <path d="M1574.76,1001.85c-10.12,3.68-30.67,6.13-36.22-2,2.75-10.46,5.19-20.8,9.89-30.19,2.01-4.02,14.81-3.63,16.71.44,4.85,10.45,7.12,21.13,9.63,31.75Z"/>
            <path d="M1583.13,1024.81c-17.72,8.55-36.03,8.62-53.1-.46l6.77-19.35c12.85,8.04,26.85,7.55,39.54.14l6.79,19.67Z"/>
          </g>
          <polygon points="1415.48 1025.88 1389.48 1020.37 1388.96 997.6 1414.85 993.16 1415.48 1025.88"/>
          <path d="M1488.21,1023.15c.2,3.49-9.09,7.59-11.65,5.22-2.36-2.19-4.72-5.22-6.74-6.01-2.78-1.08-6.56,1.87-9.44,4.12s-12.47-2.06-12.11-5.77c.28-2.91,1.47-5.68.64-7.09-3.4-5.83-12.1.89-14.47-7.49-.73-2.59-1.36-6.31-1.16-7.82,3.64-1.61,6.53-3.38,6.55-5.99.04-4.38-2.26-5.34-6.34-7.89-2.72-1.7-1.22-6.9.15-9.11,5.63-9.13,12.36,1,14.1-9.28.59-3.51,2.51-7.64,4.89-8.27,12.45-3.29,9.7,10.35,23.11,1.8,4.72-3.01,13.89,1.38,13.85,6.96-.02,3.22.07,6.11.64,8.57,1.15,5.01,15.64.4,16.79,7.53.79,4.87,1.01,9.28-4.22,10.7-1.51.41-4.47,2.9-4.43,4.36.12,4.84,7.7,5.7,7.49,8.25-.11,1.43-1.38,4.62-2.25,5.81l-3.37,4.6c-1.78,2.43-7.38-4.1-11.24-.57-1.1,1.01-1,3.62-.78,7.37ZM1479.76,1002.47c6.73-7.75,6.08-18.87-1.88-24.77s-18.55-4.03-23.62,3.63c-5.07,7.68-2.2,17.08,5.22,22.72,6.45,4.9,14.27,5.33,20.28-1.58Z"/>
        </g>
      </g>
      <g>
        <path d="M1789.26,951.64l-30.46-.22-237.09-.1c-.89-4.97-1.41-9.81-1.4-15.52l265.5-.03,3.45,15.87Z"/>
        <polygon points="1755.64 992.5 1744.85 992.94 1748.21 963.88 1758.52 964.62 1755.64 992.5"/>
        <path d="M1847.32,786.07v80.89s-439.49.02-439.49.02v-80.89s439.49-.02,439.49-.02ZM1435.38,857.62l45.78-61.23h-38.52s-23.95,34.16-23.95,34.16l.48,26.98,16.21.09ZM1548.96,857.3l44.98-60.95-63.11.16-42.98,60.68,61.11.12ZM1679.5,857.29l45.2-60.93-64.13.25-42.17,60.8,61.11-.12ZM1780.1,857.35l44.84-60.79-35.77-.21-43.27,61.12,34.2-.12Z"/>
        <g>
          <polygon points="1844.85 1010.88 1807.72 1013.23 1786.15 881.19 1822.65 881.22 1844.85 1010.88"/>
          <polygon points="1763.19 932.93 1752.82 933 1760.73 881.04 1771.09 882.5 1763.19 932.93"/>
          <path d="M1813.51,781l-59.67-.07c-1.75-2.73-1.9-8.26-.22-10.01,6.82-.23,14.1.26,20.69-1.93-16.28-7.01-28.34-19.54-26.93-36.85,1.71-20.99,19.57-35.06,39.5-33.92,20.06,1.15,36.65,19.54,34.45,40-1.73,16.18-13.25,23.79-27.76,31.35,7.16,1.41,12.83,1.29,20.32,1.64.3,1.94.17,5.47-.39,9.8ZM1809.1,740.92c3.38-10.27-1.47-21.26-8.77-26.99-8.78-6.91-19.9-7.12-29.39-1.62-10.17,5.9-14.71,17.44-11.36,28.77,3.07,10.4,13.66,16.67,25.32,16.71s20.35-5.18,24.19-16.87Z"/>
        </g>
        <path d="M1496.91,780.95l-59.16.13c-.86-2.71-.99-7.92-.35-10.2,7.89-.15,14.04.48,21.85-2.11-12.78-5.21-24.1-12.71-27.17-26.81-4.57-20.98,11.01-41.12,31.93-43.41,20.6-2.26,40.73,13.9,40.68,35.62-.04,17.12-10.6,28.57-27.39,33.87,6.22,4.9,12.56,1.89,19.33,3.4,1.02,1.69,1.14,6.02.3,9.51ZM1471.41,757.45c11.53-1.57,19.77-8.51,21.94-19.59,2.05-10.44-3.78-20.77-12.18-25.75-9.41-5.58-20.59-4.68-29.14,2.13-9.32,7.42-12.13,19.2-7.71,29.4,4.49,10.36,14.7,15.51,27.09,13.82Z"/>
      </g>
    </g>
    <g>
      <rect x="269.53" y="258.77" width="4.05" height="3.45" transform="translate(-104.34 277.79) rotate(-46.44)"/>
      <path d="M385.22,368.02c1.44.15,3.25.49,4.75.92l18.05,79.22-117.17.11c-4.32,10.07-21.91,9.1-30.65,7.17-4.01-.89-6.58-3.39-8.34-7.18l-116.05-.06,15.51-79.37,4.25-.79-5.03,27-8.09,47.74,117.01.03c.2,2.63,1.14,4.46,3.24,5.05,5.25,1.49,19.9,2.94,20.86-5.05l117.44-.02-15.76-74.76Z"/>
      <path d="M363.79,425.29c6.84-2.26,13.07-3.53,19.2-6.85l-9.45-52.02-2.15-11.05,7.48,1.66,13.72,71.22c-10.18-1.7-18.68-2.3-28.8-2.96Z"/>
      <path d="M163.88,421.52l16.96,3.03c-10.85,1.81-20.39,3.23-30.71,5.86l12.29-74.23,7.21-.6-4.79,26.62-6.45,41.19c1.96.83,3.96-.07,5.49-1.87Z"/>
      <path d="M390.78,436.23c-18.34-2.43-35.46-4.82-53.52-5.85-17.52-.99-33.7,1.06-50.96,6.81,1.52-2.53,4.49-3.6,7.14-4.48,13.42-4.46,26.49-5.77,41.09-5.26,18.29.65,38.39,3.15,56.05,5.92.75.12.84,2.94.21,2.86Z"/>
      <path d="M219.08,430.57c-21.75-1.1-43.44,1.3-64.34,5.15-.65.12-2.1-.33-2.51-.6-.55-.36.48-2.26,1.2-2.4,24.82-4.79,81.05-10.64,101.17,4.47-12.52-3.24-22.86-5.98-35.51-6.62Z"/>
      <path d="M340.76,435.91l-36.08,2.15c2.99-3.56,31.03-4.64,36.08-2.15Z"/>
      <path d="M295.41,304.58c-1.2-3.33-2.73-5.97-6.11-7.3,3.48-.74,4.57-4,6.02-7.48.77,3.74,1.63,6.69,5.55,7.36-2.83,1.77-4.26,3.79-5.46,7.42Z"/>
      <path d="M257.23,309.13c-.58-3.36-2.77-5.78-5.34-7.67,2.64-1.2,4.45-3.3,5.54-6.46,1.11,3.05,2.95,5.16,6.01,6.27-3.06,1.51-5.18,3.99-6.21,7.85Z"/>
      <path d="M229.11,437.57l-25.23-1.67.51-1.23c11.64.3,23.26-.5,34.89,3.72-3.44.42-6.84-.61-10.17-.83Z"/>
      <path d="M276.68,324.83c-.94-1.65-3.05-4.25-4.67-5.75,1.6-.96,3.82-3.5,4.91-5.51,1.16,2.12,3.16,4.43,4.71,5.72-1.49,1.19-3.33,3.06-4.96,5.54Z"/>
      <polygon points="256.12 340.47 252.61 336.2 256.34 331.24 259.26 336.42 256.12 340.47"/>
      <rect x="233.42" y="280.86" width="4.26" height="4.2" transform="translate(-127.1 219.41) rotate(-40.28)"/>
      <path d="M243.11,319.19l-2.84,2.83-1.61-2.53c-.41-.64.99-2.31,1.65-2.89l2.79,2.58Z"/>
      <path d="M298.32,331.98l2.85-2.92,2.07,1.98c.51.49-.98,1.9-1.5,2.39s-1.56-.23-3.42-1.46Z"/>
      <g>
        <path d="M268.42,433.1l-5.25-4.65c-16.79-11.07-43.77-11.5-63.36-9.72-11.62,1.05-22.7,1.42-33.87-2.14l9.6-72.37c2.56-.25,5.23.55,7.97,1,22.62,3.73,44.58-3.13,65.04,7.91,7.77,4.19,14.04,9.93,20.49,16.11l-.62,63.86ZM213.33,360.22c.81-.88,1.04-1.51.19-1.89-4.17,0-24.28-1.86-26.34,1.8l26.15.09ZM254.95,386.24c-7.19,1.29-13.9-1.11-16.89-7.02s-1.11-11.99,4.63-15.76c-6.03-.16-11.15,2.76-14,7.49-2.56,4.24-1.88,9.28.3,13.57,1.87,3.68,5.55,6.33,10.13,7.36,5.92,1.32,11.91-.33,15.83-5.63ZM216.79,369.33c-2.94-4.93-30.11-3.73-32.34.18,11.55-.3,21.11-.47,32.34-.18ZM201.12,397.56l9.85-7.18,3.08,2.63c.49.42,1.75.46,2.26.09.41-.29,0-1.84-.45-2.21l-15.29-12.38-11.13,10.03c-1.73,1.56-3.33,3.5-2.78,6.1l5.84-5.19,8.63,8.1ZM245.08,409.28c2.39.54,4.65.76,6.84.2-16.28-8.63-48.32-9.38-65.53-3.31,1.75,1.2,4.01.17,6.13.14l19.05-.24c11.43-.14,22.41.67,33.51,3.2Z"/>
        <path d="M327.72,417.95c-15.82-.87-41.69,2.07-53.5,15.06l-.74-38.46-.58-24.99c16.59-16.85,32.85-23.93,57.01-23.18,11.93.37,22.9-.01,34.84-2.35,1.69,7.29,2.43,13.97,3.5,21.03l7.84,51.86c-6.71.82-12.81,2.97-19.14,2.62l-29.21-1.6ZM326.74,360.44l26.09-.43c-7.29-4.43-27.07-2.16-34.98.04,2.81,1.94,5.77.43,8.89.38ZM306,396.16l12.2-18.97-15.83-12.15c-5.15,6.66-9.2,12.6-13.34,19.69l16.97,11.43ZM356.37,369.4c-4.85-3.86-29.33-4.92-33.11.03,11.35-.5,21.64-.3,33.11-.03ZM351.05,388.82c2.04,1.34,3.38,4.04,5.59,1.89l-16.01-13.16-11.36,9.57c3.42,3.65,7.24,7.08,11.78,10.76l10-9.06ZM352.87,406.04c-13.64-6.76-51.76-5.62-64.56,3.54l26.95-3.92c7.28-1.06,28.94.77,37.61.38Z"/>
        <polygon points="201.62 394.63 193.9 387.45 201.11 381.86 208.9 388.45 201.62 394.63"/>
        <polygon points="305.11 391.4 293.77 383.33 302.83 369.63 313.48 377.66 305.11 391.4"/>
        <polygon points="341.14 394.49 333.1 387.38 340.89 381.06 348.94 387.45 341.14 394.49"/>
      </g>
    </g>
    <g>
      <g>
        <path d="M1457.8,407.05c-.91-5.5-1.49-9.69-1.56-15.17,4.1,3.83,15.31,19.71,15.42,25.1-33.29,3.22-66.44-1.5-95.44-17.94l-44.19-25.06c-25.94-14.71-53.83-21.23-84.09-23.09,3.29-5.01,7.91-7.26,13.08-9.48,22.49-9.65,46.47-13.82,71.01-13.85.48,3.16.76,5.69.85,7.82-20.08,1.07-38,3.74-57.01,9.56l11,2.26c31.91,6.55,55.72,18.1,83.45,34.73,26.67,15.99,56.19,24.37,87.47,25.12Z"/>
        <path d="M1489.75,402.66c21.56-3.41,41.49-10.63,59.88-21.97l-20.63-10.1c-10.34-4.58-20.94-8.41-31.72-10.76l-13.86,6.45c-2.21,1.03-5.67,1.42-8.63,1.24,5.69-4.35,12.42-7.42,16.68-13.32l4.85-6.71c24.66,6.67,47.56,16.26,71.39,27.24-12.66,22.41-55.69,36.98-79.97,39.31-3.46-4.07-13.2-19.4-13.5-23.78l15.51,12.39Z"/>
      </g>
      <g>
        <path d="M1522.02,257.58c.27,7.15-20.47,10.15-27.16,10.04-35.99-.58-28.09-38.99-64.87-46.95-.11-.22.8-2.37,1.44-2.44l2.39-.24c13.99-3.33,43.16-1.75,54.15,8.22,13.37,12.13,19.8,21.86,34.06,31.37ZM1508.35,258.27c-9-6.84-15.83-13.38-22.38-20.96-8.23-8.95-19.07-13.07-31.39-12.16l17.81,27.64c10.32,7.44,23.57,10.26,35.96,5.47Z"/>
        <path d="M1456.78,349.78l-2.26-18.91-23.88-1.21c-4.85-.25-10.49-.6-13.16-5.8l30.43.15c10.72.05,20.94-1.84,30.57-5.44l7.82,27.95c-16.97,12.44-53.39,12.5-72.43,7.99,1.39-3.02,4.39-4.14,7.68-4.04,11.86.36,22.07.37,35.23-.71Z"/>
        <path d="M1405.85,353.85c-16.39-.7-30.72-3.01-46.63-7.03l5.77-22.67c1.5-5.9,3.25-11.92,6.14-17.11,13.24,3.94,24.79,6.26,37.82,8.38,2.35.31,4.15,1.76,4.57,4.06-1.44,11.9-3.46,22.36-7.67,34.37ZM1393.96,332.38c4.61-1.53,6-1.94,9.28-2.54l1.02-6.06-28.33-5.27-5.62,21.58c9.57,2.01,19.35,3.48,29.32,4.04.61-2.68.04-5.71-1.18-7l-4.49-4.76Z"/>
        <path d="M1369.56,298c-1.32,3.21-2.43,6.03-4.59,7.5l-7.79-4.09c11.56-29.01,29.66-54.39,53.58-73.72,2.16-1.75,5.78-3.04,7.64-1.06-.43,3.07-3.76,5.07-6.2,7.42-18.6,17.96-32.63,39.53-42.65,63.95Z"/>
        <path d="M1463.52,313.5c-3.93-8.51-7.26-17.06-12.21-24.54l-12.47-18.88c7.59.62,10.25,6.06,16.53,10.47,0-4.14-.62-9.15-2.26-13.23l-7.95-19.76c3.55.41,5.94,3.54,7.95,6.53l9.61,14.25c4.24,6.3.34,13.56,1.58,20.02,1.5,7.84,6.07,15.08,7.13,23.14-1.52,1.54-5.33,2.49-7.9,2Z"/>
        <path d="M1423.75,244.98c-1.29-4.78-2.34-10.11-2.3-15.71l.28-39.21c.02-3.48,1.84-6.35,5.5-7.6l-.1,29.25-.23,18.59c-.06,5-.47,9.21-3.15,14.68Z"/>
        <path d="M1349.14,320.62c-1.28,3.02-1.5,8.87.43,10.44s6.31,4.12,3.56,6.56c-4.95,1.23-14.37-3.08-15.2-9.31-.74-5.62,3.67-13.79,8.13-16.84,5.2-3.56,18.37,4.71,14.11,5.37l-2.89.45c-2.5.39-6.89.39-8.14,3.34Z"/>
        <path d="M1418.76,218.64c-3.93.4-5.77.41-8.14-2.62l7.7-4.87.44,7.48Z"/>
        <g>
          <path d="M1419.11,205.14c-10.03,2.21-17.61-3.52-21.43-11.89-4.58-10.02-3.86-20.21,3.11-29.02,10.28-13,11.45-7.99,18.58-20.85,2.08-3.75,8.94-4.27,11.42-.6,3.38,4.98,1.66,11.85-2.55,15.87l-12.33,11.76c-3.2,3.05-5,7.65-4.03,11.8.9,3.84,2.99,7.48,7.3,9.63l-.07,13.29Z"/>
          <path d="M1430.27,206.64l-.02-14.82c5.48-3.99,8.97-8.81,11.23-15.09,1.63-4.54,6.3-16.14,12.72-11.96,1.11,7.76,1.03,16.88-1.33,24.37-3.41,10.83-12.01,16.96-22.59,17.5Z"/>
          <g>
            <path d="M1457.65,112.91h-65.72s-15.05-37.93-15.05-37.93l19.13-30.55,58.12-.08,18.21,30.32-14.68,38.23ZM1446.24,78.86l-21.14-26.21-22.1,26.8,21.19,26.21,22.05-26.8ZM1390.62,83.62c4.37.23,4.53-3.74,3.36-5.86-.76-1.37-4.32-2.48-5.37-1.23-1.88,2.24-.44,6.96,2.01,7.09ZM1462.32,79.72c0-1.99-1.61-3.6-3.6-3.6s-3.6,1.61-3.6,3.6,1.61,3.6,3.6,3.6,3.6-1.61,3.6-3.6Z"/>
            <path d="M1444.76,125.94l-39.16.07c-5.75,0-9.5-2.33-10.85-9.06l61.29-.03c-.91,5.73-5.8,9.01-11.28,9.02Z"/>
            <path d="M1452.27,40.56l-54.47.02c1.66-4.76,5.71-5.96,9.76-5.95l39.17.15c2.45,0,5.09,3.43,5.53,5.77Z"/>
            <path d="M1437.21,145.1c-2.92-5.18-6.35-8.44-11.17-8.8-5.32-.39-8.95,2.53-11.95,7.97-2.65-4.58-4.13-9.03-5.15-14.48l33.24-.17c-.78,5.78-2.38,10.27-4.97,15.48Z"/>
            <rect x="1422.97" y="11.86" width="30.64" height="6.94" transform="translate(1419.61 1453.58) rotate(-89.87)"/>
            <rect x="1409.23" y=".18" width="6.41" height="30.46"/>
            <path d="M1425.1,52.65,1424.19,105.66,1424.41,97.3l15.16-18.2-14.8-18.18-15.34,18.2,14.98,18.18Z"/>
            <polygon points="1424.41 97.3 1409.43 79.12 1424.77 60.93 1439.57 79.1 1424.41 97.3"/>
          </g>
        </g>
      </g>
    </g>
  </g>
  <g id="Layer_3" data-name="Layer 3">
    <text transform="translate(124.7 529)" font-family="SansSerifCollection, &apos;Sans Serif Collection&apos;" font-size="72"><tspan x="0" y="0">The spell fizzled and we could not </tspan><tspan x="0" y="86.4">summon the page you we</tspan><tspan x="842.32" y="86.4" letter-spacing="-.02em">r</tspan><tspan x="870.61" y="86.4">e </tspan><tspan x="0" y="172.8">looking fo</tspan><tspan x="329.32" y="172.8" letter-spacing="-.16em">r</tspan><tspan x="347.54" y="172.8">.</tspan></text>
    <text transform="translate(124.7 289.8)" fill="#29abe2" font-family="SansSerifCollection, &apos;Sans Serif Collection&apos;" font-size="176.73"><tspan x="0" y="0">404</tspan></text>
  </g>
</svg>