<?xml version="1.0" encoding="UTF-8"?><svg id="Layer_1" xmlns="http://www.w3.org/2000/svg" viewBox="0 0 100.65 79.95"><path d="M84.15,66.19c-11.22-.36-23.81-.05-32.53,7.92,7.81-13.75,30.08-9.88,43.65-9.12l-6.25-15.69c1.12-.18,2.9-.7,3.3.84,0,0,8.24,20.24,8.24,20.24.34.82-.28,1.58-1.04,1.65-8.15.71-25.81,2.4-34.06,3.23-3.46.45-6.92.74-10.19,1.94-1.58.62-.22,2.75-2.07,2.75,0,0-5.92-.01-5.92-.01-1.49,0-.12-2.2-2.03-2.88-7.51-2.37-22.93-2.94-30.9-3.89,0,0-13.48-1.19-13.48-1.19-.56-.05-1.03-.85-.81-1.39l7.18-17.51c1.11-2.36,1.07-4.82,4.6-3.81l-6.34,15.67c13.67-.55,35.42-4.63,43.62,9.22-11.6-10.11-28.63-8.44-42.89-7.04l-.95,2.1c14.03.06,34.13-4.43,43.97,8.14.7.04,1.61.07,2.25-.02,10.04-12.44,29.93-8.06,44.01-8.15l-.9-2.05c-3.47-.35-6.9-.77-10.46-.91Z"/><path d="M52.97,62.13c-8.06-4.02-13.39-11.18-14.54-19.86-.29,6.93,3.66,12.71,8.42,17.39-28.62-18.72,3.23-51.75,28.55-50.97.23.82.34,1.52.4,2.45-22.01,4.86-41.05,31.83-22.82,51ZM54.27,18.84c5.71-4.12,12.07-6.84,18.78-8.51-11.26,1.14-21.96,7.47-27.86,17.19,2.75-3.26,5.58-6.11,9.08-8.67ZM42.91,38.41c.97-2.35.58-1.91,2.77-2.72-1.63.02-2.64-1.04-2.9-2.65-.59,2.25-.91,2.09-2.8,2.73,2.21.51,2.2.72,2.92,2.63ZM43.56,49.91l-1.82-7.38c-.52,1.93.9,6.21,1.82,7.38Z"/><path d="M54.32,65.74c9.86-7.23,23.3-7.39,35.06-7.25-1.16-3.35-3.68-10.41-4.96-13.67-10.46-.95-22.63.61-29.88,9.05,4.1-9.71,22.8-12.73,31.61-9.84-.3.32,6.9,16.66,5.28,16.41-13.26-.46-28.48-.27-39.44,8.29.32-1.36,1.33-2.19,2.34-2.98Z"/><path d="M33.49,60.34c5.26,1.33,12.62,3.2,15.27,8.35-11.17-9.07-26.86-7.3-39.77-8.61.46-2.08,5.3-14.38,6.04-16.65,2.69-.64,18.46-.92,18.2,2.52-5.48-1.12-11.14-1.93-16.69-1.14l-5.17,13.84c7.18-.03,15.14.06,22.12,1.69Z"/><path d="M80.88,7.77c-1.32.81-2.45,1.7-3.79,2.73l.91-3.99-3.84-1.86,4.55-.98,1.25-3.68,2.15,3.1,4.46-.22-3.19,2.86,1.5,3.58-3.99-1.53Z"/><path d="M65.84,31.05c-.78-3.08-1.1-3.11-3.95-3.8,2.83-.74,3.25-.93,3.94-3.82.62,2.74,1.16,3.2,3.98,3.81-2.69.53-3.29.98-3.97,3.81Z"/><path d="M24.41,33.87c-.63-2.7-1.14-3.1-3.83-3.66,2.8-.75,3.05-.92,3.79-3.66.73,2.72,1.1,3.03,3.84,3.67-2.78.58-3.1,1-3.8,3.66Z"/><path d="M39.51,15.97c-.73-2.72-.99-2.88-3.67-3.52,2.61-.62,3.19-1.18,3.67-3.66.64,2.48,1.06,3.2,3.66,3.65-2.59.62-2.91.84-3.66,3.53Z"/><path d="M34.07,26.63c-.23-1.45-1.04-2.17-2.58-2.46,1.44-.25,2.36-.94,2.53-2.51.2,1.46,1.02,2.37,2.52,2.5-1.46.31-2.21.98-2.46,2.48Z"/><path d="M72.95,37.46c-.3-1.06-.88-1.49-1.9-1.78.93-.39,1.58-.8,1.89-1.91.25,1.03.83,1.5,1.79,1.89-1.03.35-1.43.8-1.78,1.8Z"/><path d="M56.07,37.45c-.32-.96-.81-1.37-1.71-1.67.9-.29,1.42-.71,1.71-1.68.2.86.68,1.38,1.63,1.67-.84.3-1.3.71-1.63,1.68Z"/><path d="M84.41,16.22c-.27-.79-.82-1.26-1.66-1.57.8-.29,1.35-.67,1.64-1.42.37.7.82,1.13,1.57,1.41-.74.3-1.17.76-1.54,1.57Z"/><path d="M28.1,16.21c-.23-.72-.69-1.24-1.59-1.54.79-.28,1.31-.74,1.61-1.61.32.87.76,1.4,1.71,1.6-.78.26-1.33.55-1.73,1.55Z"/><path d="M73.97,19.24c-.28-.96-.81-1.27-1.75-1.6.96-.16,1.49-.58,1.77-1.62.19.82.55,1.32,1.47,1.66-.77.3-1.19.64-1.48,1.56Z"/><path d="M51.72,10.36c-.28-.65-.71-1.14-1.37-1.39.65-.27,1.11-.68,1.37-1.37.24.7.67,1.16,1.38,1.36-.67.27-1.07.75-1.38,1.39Z"/><path d="M31.32,37.51c-.35-.5-.8-.93-1.31-1.18.73-.2,1.1-.79,1.36-1.48.18.76.54,1.25,1.24,1.44-.53.3-.96.67-1.29,1.22Z"/><polygon points="77.4 29.36 76.51 28.42 77.41 27.55 78.3 28.46 77.4 29.36"/><path d="M51.43,42.97l-.82-.95.86-.84c.2.27.58.65.9.88-.23.16-.64.56-.95.91Z"/><polygon points="47.44 15.33 46.68 14.58 47.45 13.72 48.27 14.56 47.44 15.33"/></svg>