<?xml version="1.0" encoding="UTF-8"?><svg id="Layer_1" xmlns="http://www.w3.org/2000/svg" viewBox="0 0 660.77 503.76"><path d="M142.65,227.47c-16.91,4.87-20.7,12.09-25.5,29.42l-2.32,8.38c-9.25-31.46-8.71-33.12-40.54-41.52,31.91-8.12,32.4-11.5,40.65-41.94l1.27,5.4c1.32,5.62,3.31,11.12,5.44,16.76,5.27,13.99,20.66,17.01,33.89,19.75l-4.13,1.21-8.76,2.52Z"/><path d="M169.01,132.99c0,.08-.12-1.05-.25-2.14l-3.34-10.14c-2.9-8.79-12.09-9.76-20-11.49,4.57-2.31,9.88-1.49,15.4-5.87,3.59-2.84,5.89-7.84,6.81-12.28l1.3-6.2c1.32,4.99,3.27,18,10.18,20.23l13.49,4.35-7.3,1.36c-8.87,1.66-12.18,7.05-14.29,14.79l-2.01,7.39Z"/><path d="M597.53,255.37l-3.51,12.69c-1.2-6.23-3.39-17.93-11.05-20.26l-11.51-3.51c17.41-3.7,19.11-5.97,22.57-22.37l3.66,12.16c2.42,8.03,13.26,9.16,18.86,10.44l-12.79,4.02c-2.17.68-5.62,4.59-6.24,6.83Z"/><path d="M555.96,147.73c-3.95-20.8-5.97-25.61-28.62-30.24l13.34-3.66c2.58-.71,6.61-3.27,8.09-5.18,4.57-5.91,5.91-12.76,7.24-19.88l4.54,15.33c3,10.14,16.33,11.54,24.09,13.48-11.63,4.08-17.9,2.56-24.02,13.45l-4.66,16.69Z"/><path d="M457.6,496.61l-11.11,1.21-35.01,3.16c-17.49,1.58-34.4,1.98-51.95,2.55l-7.05.23-44.93-.17-24.04-.93-14.95-.82-15.05-1.08-32-2.98-32.04-3.78c-18.98-2.24-37.28-5.28-55.71-9.5l-20.85-4.77c-16.63-3.81-32.41-8.99-48.14-15.14-18.96-7.41-41.52-17.84-55.47-32.87-2.8-3.02-5.06-6.83-6.79-10.7-13.84-30.83,33.37-54.88,55.78-63.48,38.95-14.93,78.73-22.29,119.83-29.04l4.59-13.24,4.59-13.37,21-54.32c9.98-25.81,21.66-49.72,34.33-74.66,19.63-38.64,44.52-79.76,72.59-112.19,7.3-8.43,21.27-22.29,29.75-29.26C367.51,12.93,390.14,2.01,419.75.28c23.68-1.38,43.74,2.41,66.76,9.51,22.25,6.86,47.25,18.88,65.76,32.47,2.85,2.09,2.72,6.3.1,8.45l-24.91.23c-9.26.09-27.17,2.75-36.27,4.53-12.34,2.42-23.97,5.67-36.16,9.86-1.45,28.47,2.38,60.22,9.23,87.6l8.28,33.1c2.71,10.85,5.6,21.2,8.99,31.91l8.62,27.3,5.79,17.67,4.5,13.13,10.56,30.15,9.66,27.25,52.48,13.8c6.49,1.71,12.71,4.19,19.3,6.58,14.46,5.24,29.63,12.2,42.36,20.45,14.41,9.34,30.53,24.39,24.77,43.61-4.4,14.68-18.95,25.55-31.78,32.77-6.79,3.82-19.4,10.12-26.49,12.68l-20.1,7.25c-30.49,11-90.69,22.45-123.6,26.04ZM431.49,399.66c25.54-4.69,59.78-14.36,82.35-26.18l-2.75-8.24-13.75-38.36-18.11-51.44-15.32-47.28-10.19-35.46-4.68-17.98-4.91-19.81c-7.86-31.68-11.44-65.43-7.79-98.02.18-1.64,1.5-4.55,3.13-5.25,16.37-7.04,32.52-11.97,50-14.76l9.48-2.01c-7.22-2.93-13.26-5.28-20.44-7.25l-17.99-4.95c-20.68-3.83-38.46-5.73-58.86-.33-9.36,2.48-18.2,6.03-26.46,11.31-19.37,12.4-35.54,27.96-50.19,45.68-5.33,6.45-10.32,12.55-15.3,19.61-27.07,38.34-54.45,88.76-72.69,131.74l-14.16,33.36c-8.68,20.46-16.27,40.38-23.02,61.14l-5.76,17.71-6.53,20.02c-1.55,4.77-2.62,9.04-3.87,14.01,34.7,18.3,93.81,27.46,132.78,29.36l9.01.44,24.02.36c23.26.34,58.79-3.18,81.99-7.45ZM585.81,373.37c-6.06-2.21-11.96-4.27-18.3-6.12l-11.99-3.5-12.4-3.62-1.63.52,6.35,11.4c1.17,2.1.55,6.46-1.56,7.56l-21.15,11.08c-6.66,3.49-13.5,6.23-20.71,9.02-40.77,15.74-89.24,24.67-132.89,26.47l-12.07.5c-10.77.44-21.24.5-31.7-.12l-25.3-1.51c-27.61-1.64-78.04-10.54-103.79-20.08l-19.14-7.09c-9.19-3.4-18.6-7.74-27.32-11.68s-2.43-17.34.48-22.95l5.19-10-12.67,2.37-13.75,2.95c-11.92,2.56-23.22,5.38-34.66,8.64-18.39,5.24-57.92,17.5-65.98,36.77-2.59,6.2,2.73,14.85,7.59,19.07,10.76,9.32,24.68,15.93,38.06,20.88,25.96,9.61,47.9,15.46,74.72,20.45,26.97,5.02,53.55,8.77,81.28,11.31,26.36,2.41,51.61,4.5,77.98,4.5h44.1c45.83-.01,120.06-7,164.92-17.08l15.07-3.39c24.91-5.6,84.54-21.52,95.98-45.83,8.92-18.95-32-35.88-44.73-40.51Z"/><path d="M282,330.31l-18.7,8.26-13.12,5.8,3.09-8.49,9.44-23.83-15.05-16.23-8.3-8.95c7.72.33,13.95.68,21.14,1.36l12.36,1.17,9.48-15.66,7.4-11.62,8.17,27.82c.26.88.92,2.4,1.35,3.43l26.21,5.36c2.16.44,3.55.83,6.34,1.65l-8,4.95-20.26,12.1,2.88,20.56c.59,4.23.89,8.51,1.21,12.91l-25.64-20.59Z"/><path d="M321.5,202.14l-4.72-13.34c-1.94-5.49-13.41-7.6-18.36-9.27.15-.12,1.77-.83,2.33-.97,10.75-2.55,15.59-3.77,18.73-14.52l2.19-7.48,1.79,6.56c1.66,6.08,4.85,11.74,11.34,13.49l10.86,2.93c-7.33,2.23-18.14,4.15-20.55,11.54l-3.61,11.05Z"/><path d="M419.06,285.36c13.59,16.94,31.33,22.83,52.9,23.54-12.94,11.48-30.6,16.38-46.6,15.62-12.54-.6-23.71-4.18-34.23-11.09-22.29-14.63-33.76-42.08-27.14-68.12,8.02-31.52,41.09-53.85,74.74-45.2l-10.37,8.86c-5.95,5.09-10.99,11.97-14.82,19.08-9.97,18.49-7.66,40.9,5.5,57.31ZM397.75,281.75c-9.11-21.44-9.24-39.48,2.37-60.21-.04-.46-.02-1.64-.03-2.2-3.56,2.76-6.49,4.79-9.42,7.81-20.93,21.55-16.37,55.68,6.52,72.1,7.58,5.44,15.74,9.48,25.43,10.5-13.56-11.12-16.16-12.7-24.87-28.01Z"/></svg>