<?xml version="1.0" encoding="UTF-8"?>
<svg id="Layer_1" data-name="Layer 1" xmlns="http://www.w3.org/2000/svg" viewBox="0 0 1353.38 1009.63">
  <g id="HookHat">
    <g>
      <path d="M1274.65,800.44c-.31.78-2.3,1.64-3.11,1.57l-16.77-1.47c-12.8-1.12-25.36-1.15-38.04.9-11.72,1.89-20.78,6.77-30.28,15.73,1.82-8.35,7.51-14.47,13.2-20.36,3.78-3.92,8.27-6.8,13.63-8.31,12.4-3.51,24.8-4.72,37.47-5.79-1.08-.84-2.65-1.32-4.19-1.41-13.46-.77-26.52,1.76-39.35,6.74,5.06-14.04,6.83-27.76,6.52-42.23,8.63-4.53,17.53-7.41,27-8.79l24.07-3.5c12.96-1.88,24.01-7.13,33.67-16.87l-3.28,25.61-10.06,4.19,7.82.62c-1.52,10.22-3.71,19.58-7.67,28.61l-13.12,4.05c3.82,1.02,6.09.2,10.17.11-2.37,7.01-4.93,13.8-7.67,20.62ZM1242.37,753.23c1.9-.45,3.57-.99,4.32-3.06-8.47.97-17.2,2.26-23.86,8.5,6.61-1.92,12.66-3.83,19.53-5.45ZM1270.94,759.37l-6.12-14.64c-6.04,6.25-10.91,11.79-15.81,18.21l10.47,11.63,11.46-15.2ZM1238.17,768.86c1.3-.37,2.54-1.69,1.86-2.7-5.85.8-17.64,3.33-20.63,8.1l18.78-5.4Z" fill="#f2f2f2"/>
      <path d="M1240.02,766.16c.69,1.01-.56,2.32-1.86,2.7" fill="#f2f2f2"/>
      <polygon points="1266.84 759.06 1259.32 769.17 1253.46 762.36 1263.26 750.93 1266.84 759.06" fill="#f2f2f2"/>
    </g>
    <g>
      <g>
        <path d="M1183.67,739.5c-16.81,8.19-50.56,13.01-69.46,14.46-5.99.46-11.56.64-17.6-.68,10.19-4.72,17.29-11.64,22.44-20.93,3.09.13,6.47.14,8.09-2.46l-6.91-.3c3-7.94,4.22-14.96,3.59-23.1l-.73-9.49c29.2-5.22,46.03-20.69,59.56-46.86,5.46,16.67,11.32,39.9,9.94,56.82-.25,4.69-.64,8.55-2.18,13.64l-4.46-5.35c-1.22,6.36-9.54,12.51-13.44,16.9,5.02-1.45,8.4-3.71,13.06-6.67-.05,4.89-.67,9.46-1.91,14.02ZM1168.91,686.59l6.18-5.56c2.62-2.35,4.86-5.51,4.85-9.06-4.01,5.15-11.81,11.28-13.44,14.61-.17.35,2.12.27,2.42,0ZM1141.11,719.2c-.9-6.53,2.32-12.31,7.69-15.32,2.68-1.5,6.15-2.25,8.6-.34,4.02,3.14,4.75,8.47,2.83,13.26-4.9,12.25-16.77,19.84-30,20.85,3.96,2.32,8.32,1.3,12.3.03,10.02-3.22,18.07-10,21.43-19.88,1.78-5.23,1.56-10.51-1.64-15.12-3.14-4.52-8.65-5.83-13.77-3.26-7.62,3.83-12.41,12.41-11.3,20.95.34,2.62,2.36,5.24,4.54,6.11,6.07,2.39,12.38-5.02,14.21-10.96.68-2.22-.18-5.83-2.42-6.42-4.23-1.12-7.33,4.6-6.96,7.61.04.31,1.53,1.14,1.64.83l.52-1.55c.59-1.75,2.28-4.07,4.12-3.22.69,4.98-3.9,9.51-8.75,9.79-1.09.06-2.84-2-3.02-3.36ZM1170.71,699.12c5.08-.51,7.88-4.45,7.96-8.61l-7.96,8.61ZM1178.8,707.35c-2.65.27-5.04,1.07-6.86,3.24-.12,1.49,7.77-.35,6.86-3.24Z" fill="#f2f2f2"/>
        <path d="M1175.08,681.04l-6.18,5.56c-.3.27-2.59.34-2.42,0" fill="#f2f2f2"/>
      </g>
      <g>
        <path d="M1348.69,640.14c5.3,7.03,5.63,16.45,4.2,25.11-21.38,10.41-57.28,2.37-68.47,29.42-15.96-16.51-32.76-33.87-56.09-36.86,9.07-17.32,31.72-25.6,49.74-26.63,12.92-.73,27.96-1.92,38.4-10.15l20.2,22.69c-6.46,9.65-15.87,15.21-27.09,19.28,9.68.85,17.74-3.92,25.34-8.81,5.03-3.88,8.73-8.11,13.77-14.05ZM1287.13,668.81l5.6-15.1-21.11-7.54c-2.19,5.93-3.6,11.05-5.17,17.13l20.67,5.51ZM1310.25,638.48c-6.02,0-11.18,2.1-15.92,5.26,5.87.21,11.77-1.6,15.92-5.26ZM1322.91,645.36c-6-.71-11.27,1.11-15.83,4.35,5.69.26,11.31-1.26,15.83-4.35Z" fill="#f2f2f2"/>
        <polygon points="1283.62 664.67 1270.54 661.03 1273.6 650.13 1286.83 654.92 1283.62 664.67" fill="#f2f2f2"/>
      </g>
    </g>
  </g>
  <g>
    <g>
      <path d="M75.9,852.26c-11.4,2.32-21.9,7.14-30.05,15.92-2.74,2.95-5.03,4.83-10.42,7.48l12.08-81.88,36.49.11-8.1,58.37Z" fill="#f2f2f2"/>
      <path d="M128.54,879.53c-1.97,2.08-8.08,2.01-10.42.3-1.27-5.32-2.86-11.98-3.81-17.59l-11.35-67.32c3.21-.75,6.62-1.05,10.17-1l11.5,67.17,3.91,18.43Z" fill="#f2f2f2"/>
      <g>
        <g>
          <path d="M214.15,946.74c-50.36,20.33-39.79,22.97-92.56.81,5.22-5.21,9.51-6.41,14.4-7.79,19.64,12.85,43.55,12.63,63.13.32,4.43-2.79,11.85.62,15.03,6.67Z" fill="#f2f2f2"/>
          <path d="M185.8,914.44c-10.12,3.68-30.67,6.13-36.22-2,2.75-10.46,5.19-20.8,9.89-30.19,2.01-4.02,14.81-3.63,16.71.44,4.85,10.45,7.12,21.13,9.63,31.75Z" fill="#f2f2f2"/>
          <path d="M194.17,937.41c-17.72,8.55-36.03,8.62-53.1-.46l6.77-19.35c12.85,8.04,26.85,7.55,39.54.14l6.79,19.67Z" fill="#f2f2f2"/>
        </g>
        <polygon points="26.52 938.47 .52 932.97 0 910.19 25.89 905.75 26.52 938.47" fill="#f2f2f2"/>
        <path d="M99.25,935.74c.2,3.49-9.09,7.59-11.65,5.22-2.36-2.19-4.72-5.22-6.74-6.01-2.78-1.08-6.56,1.87-9.44,4.12s-12.47-2.06-12.11-5.77c.28-2.91,1.47-5.68.64-7.09-3.4-5.83-12.1.89-14.47-7.49-.73-2.59-1.36-6.31-1.16-7.82,3.64-1.61,6.53-3.38,6.55-5.99.04-4.38-2.26-5.34-6.34-7.89-2.72-1.7-1.22-6.9.15-9.11,5.63-9.13,12.36,1,14.1-9.28.59-3.51,2.51-7.64,4.89-8.27,12.45-3.29,9.7,10.35,23.11,1.8,4.72-3.01,13.89,1.38,13.85,6.96-.02,3.22.07,6.11.64,8.57,1.15,5.01,15.64.4,16.79,7.53.79,4.87,1.01,9.28-4.22,10.7-1.51.41-4.47,2.9-4.43,4.36.12,4.84,7.7,5.7,7.49,8.25-.11,1.43-1.38,4.62-2.25,5.81l-3.37,4.6c-1.78,2.43-7.38-4.1-11.24-.57-1.1,1.01-1,3.62-.78,7.37ZM90.8,915.06c6.73-7.75,6.08-18.87-1.88-24.77s-18.55-4.03-23.62,3.63c-5.07,7.68-2.2,17.08,5.22,22.72,6.45,4.9,14.27,5.33,20.28-1.58Z" fill="#f2f2f2"/>
      </g>
    </g>
    <g>
      <path d="M400.3,864.23l-30.46-.22-237.09-.1c-.89-4.97-1.41-9.81-1.4-15.52l265.5-.03,3.45,15.87Z" fill="#f2f2f2"/>
      <polygon points="366.68 905.09 355.88 905.53 359.25 876.47 369.56 877.21 366.68 905.09" fill="#f2f2f2"/>
      <path d="M458.36,698.66v80.89s-439.49.02-439.49.02v-80.89s439.49-.02,439.49-.02ZM46.42,770.21l45.78-61.23h-38.52s-23.95,34.16-23.95,34.16l.48,26.98,16.21.09ZM160,769.89l44.98-60.95-63.11.16-42.98,60.68,61.11.12ZM290.54,769.88l45.2-60.93-64.13.25-42.17,60.8,61.11-.12ZM391.14,769.94l44.84-60.79-35.77-.21-43.27,61.12,34.2-.12Z" fill="#f2f2f2"/>
      <g>
        <polygon points="455.89 923.48 418.76 925.82 397.19 793.78 433.69 793.81 455.89 923.48" fill="#f2f2f2"/>
        <polygon points="374.23 845.52 363.85 845.59 371.77 793.63 382.13 795.09 374.23 845.52" fill="#f2f2f2"/>
        <path d="M424.55,693.59l-59.67-.07c-1.75-2.73-1.9-8.26-.22-10.01,6.82-.23,14.1.26,20.69-1.93-16.28-7.01-28.34-19.54-26.93-36.85,1.71-20.99,19.57-35.06,39.5-33.92,20.06,1.15,36.65,19.54,34.45,40-1.73,16.18-13.25,23.79-27.76,31.35,7.16,1.41,12.83,1.29,20.32,1.64.3,1.94.17,5.47-.39,9.8ZM420.14,653.51c3.38-10.27-1.47-21.26-8.77-26.99-8.78-6.91-19.9-7.12-29.39-1.62-10.17,5.9-14.71,17.44-11.36,28.77,3.07,10.4,13.66,16.67,25.32,16.71,11.24.04,20.35-5.18,24.19-16.87Z" fill="#f2f2f2"/>
      </g>
      <path d="M107.95,693.54l-59.16.13c-.86-2.71-.99-7.92-.35-10.2,7.89-.15,14.04.48,21.85-2.11-12.78-5.21-24.1-12.71-27.17-26.81-4.57-20.98,11.01-41.12,31.93-43.41,20.6-2.26,40.73,13.9,40.68,35.62-.04,17.12-10.6,28.57-27.39,33.87,6.22,4.9,12.56,1.89,19.33,3.4,1.02,1.69,1.14,6.02.3,9.51ZM82.45,670.04c11.53-1.57,19.77-8.51,21.94-19.59,2.05-10.44-3.78-20.77-12.18-25.75-9.41-5.58-20.59-4.68-29.14,2.13-9.32,7.42-12.13,19.2-7.71,29.4,4.49,10.36,14.7,15.51,27.09,13.82Z" fill="#f2f2f2"/>
    </g>
  </g>
  <g>
    <rect x="1194.2" y="780.8" width="4.05" height="3.45" transform="translate(-230.04 687.3) rotate(-29.37)" fill="#f2f2f2"/>
    <path d="M1273.32,918.68c1.33.57,2.96,1.42,4.27,2.27l-6,81.03-112.04-34.29c-7.09,8.36-23.62,2.27-31.41-2.14-3.58-2.02-5.3-5.17-5.87-9.31l-110.92-34.13,38.13-71.32,4.29.5-12.73,24.33-21.75,43.26,111.84,34.38c-.58,2.58-.21,4.59,1.62,5.78,4.58,2.97,18.16,8.65,21.42,1.29l112.27,34.46,6.88-76.1Z" fill="#f2f2f2"/>
    <path d="M1236.02,967.14c7.21-.16,13.53.47,20.36-.91l6.24-52.5,1.19-11.19,6.66,3.78-7.79,72.11c-9.24-4.61-17.18-7.69-26.66-11.28Z" fill="#f2f2f2"/>
    <path d="M1046.02,904.84l15.32,7.88c-10.91-1.46-20.44-2.9-31.08-3.41l33.54-67.35,7.07,1.54-12.39,24.04-18.26,37.48c1.63,1.37,3.81,1.1,5.8-.17Z" fill="#f2f2f2"/>
    <path d="M1258.61,985.52c-16.82-7.71-32.48-15.02-49.45-21.3-16.46-6.09-32.53-8.88-50.71-8.45,2.19-1.97,5.35-2.12,8.14-2.19,14.14-.32,27.01,2.26,40.82,7.04,17.3,5.99,35.77,14.28,51.84,22.11.68.33-.06,3.06-.64,2.79Z" fill="#f2f2f2"/>
    <path d="M1096.13,929.69c-20.47-7.44-41.9-11.51-63.02-13.96-.66-.08-1.91-.93-2.22-1.31-.42-.51,1.12-2.02,1.85-1.94,25.13,2.7,80.61,13.62,95.4,33.97-11.02-6.77-20.1-12.43-32-16.75Z" fill="#f2f2f2"/>
    <path d="M1210.89,970.53l-35.12-8.54c3.9-2.53,31.02,4.67,35.12,8.54Z" fill="#f2f2f2"/>
    <path d="M1206.09,831.67c-.17-3.54-.86-6.51-3.7-8.78,3.54.31,5.54-2.48,7.95-5.38-.36,3.81-.4,6.88,3.15,8.66-3.23.86-5.18,2.37-7.4,5.49Z" fill="#f2f2f2"/>
    <path d="M1168.25,824.81c.43-3.38-.95-6.34-2.85-8.9,2.87-.37,5.22-1.85,7.19-4.55.16,3.24,1.3,5.8,3.91,7.76-3.37.55-6.12,2.3-8.24,5.68Z" fill="#f2f2f2"/>
    <path d="M1103.67,939.34l-23.63-9,.85-1.02c11.04,3.71,22.38,6.35,32.26,13.8-3.42-.61-6.36-2.59-9.48-3.78Z" fill="#f2f2f2"/>
    <path d="M1182.24,845.53c-.41-1.85-1.67-4.96-2.78-6.87,1.81-.44,4.68-2.23,6.32-3.83.49,2.37,1.72,5.17,2.83,6.85-1.77.7-4.08,1.95-6.36,3.84Z" fill="#f2f2f2"/>
    <polygon points="1157.99 854.45 1155.89 849.33 1160.91 845.68 1162.18 851.5 1157.99 854.45" fill="#f2f2f2"/>
    <rect x="1153.08" y="791.33" width="4.26" height="4.2" transform="translate(-219.21 519.53) rotate(-23.21)" fill="#f2f2f2"/>
    <path d="M1151.81,830.28l-3.54,1.87-.79-2.89c-.2-.73,1.62-1.92,2.43-2.27l1.91,3.29Z" fill="#f2f2f2"/>
    <path d="M1200.83,858.72l3.58-1.95,1.4,2.5c.34.62-1.49,1.53-2.14,1.85s-1.42-.68-2.84-2.4Z" fill="#f2f2f2"/>
    <g>
      <path d="M1142.56,946.6l-3.65-5.98c-12.8-15.51-38.46-23.84-57.71-27.9-11.42-2.4-22.11-5.31-31.75-11.99l30.42-66.36c2.52.51,4.83,2.06,7.32,3.3,20.53,10.21,43.54,10.1,59.85,26.65,6.19,6.29,10.51,13.62,14.86,21.41l-19.34,60.87ZM1111.29,860.76c1.03-.6,1.43-1.14.74-1.75-3.98-1.23-22.67-8.91-25.71-6.01l24.97,7.76ZM1143.44,897.85c-7.25-.88-12.96-5.14-14.08-11.66-1.16-6.76,2.46-11.79,9.06-13.71-5.72-1.93-11.47-.64-15.58,3.05-3.69,3.31-4.52,8.32-3.7,13.06.71,4.07,3.45,7.68,7.52,10.01,5.27,3.01,11.49,3.19,16.78-.74ZM1111.93,870.48c-1.36-5.58-27.69-12.41-30.97-9.32,11.13,3.1,20.32,5.75,30.97,9.32ZM1088.66,892.87l11.52-3.97,2.17,3.42c.34.54,1.54.95,2.14.75.48-.16.54-1.76.22-2.24l-10.98-16.32-13.59,6.32c-2.11.98-4.21,2.37-4.45,5.01l7.11-3.24,5.87,10.28ZM1127.24,916.98c2.13,1.22,4.22,2.09,6.48,2.2-13.03-13.03-43.44-23.16-61.67-22.4,1.32,1.66,3.78,1.34,5.82,1.94l18.28,5.37c10.97,3.22,21.22,7.22,31.1,12.89Z" fill="#f2f2f2"/>
      <path d="M1203.7,949.53c-14.87-5.47-40.46-10.26-55.57-1.31l10.58-36.98,6.78-24.06c20.81-11.24,38.43-13.23,61.3-5.42,11.29,3.86,21.89,6.71,33.99,7.99-.52,7.47-1.78,14.06-2.83,21.13l-7.73,51.88c-6.66-1.19-13.12-.93-19.07-3.12l-27.46-10.1ZM1219.64,894.27l25.07,7.25c-5.67-6.38-25.24-10.01-33.46-10.23,2.11,2.68,5.39,2.11,8.39,2.98ZM1189.32,922.32l17.23-14.56-11.57-16.26c-6.88,4.86-12.49,9.34-18.53,14.9l12.86,15.91ZM1245.34,911.53c-3.5-5.11-26.59-13.31-31.66-9.69,11,2.85,20.77,6.06,31.66,9.69ZM1234.55,928.53c1.56,1.88,2.04,4.85,4.79,3.44l-11.44-17.28-13.66,5.81c2.2,4.49,4.84,8.9,8.1,13.75l12.22-5.73ZM1231.23,945.53c-11.06-10.46-47.83-20.57-62.75-15.57l26.91,4.16c7.27,1.12,27.44,9.24,35.84,11.41Z" fill="#f2f2f2"/>
      <polygon points="1090 890.22 1084.72 881.09 1093.25 877.86 1098.77 886.45 1090 890.22" fill="#f2f2f2"/>
      <polygon points="1189.87 917.51 1181.41 906.47 1194.08 896.03 1201.91 906.84 1189.87 917.51" fill="#f2f2f2"/>
      <polygon points="1223.4 931.04 1217.81 921.89 1227.12 918.13 1232.93 926.6 1223.4 931.04" fill="#f2f2f2"/>
    </g>
  </g>
  <g>
    <g>
      <path d="M1174.56,407.05c-.91-5.5-1.49-9.69-1.56-15.17,4.1,3.83,15.31,19.71,15.42,25.1-33.29,3.22-66.44-1.5-95.44-17.94l-44.19-25.06c-25.94-14.71-53.83-21.23-84.09-23.09,3.29-5.01,7.91-7.26,13.08-9.48,22.49-9.65,46.47-13.82,71.01-13.85.48,3.16.76,5.69.85,7.82-20.08,1.07-38,3.74-57.01,9.56l11,2.26c31.91,6.55,55.72,18.1,83.45,34.73,26.67,15.99,56.19,24.37,87.47,25.12Z" fill="#f2f2f2"/>
      <path d="M1206.52,402.66c21.56-3.41,41.49-10.63,59.88-21.97l-20.63-10.1c-10.34-4.58-20.94-8.41-31.72-10.76l-13.86,6.45c-2.21,1.03-5.67,1.42-8.63,1.24,5.69-4.35,12.42-7.42,16.68-13.32l4.85-6.71c24.66,6.67,47.56,16.26,71.39,27.24-12.66,22.41-55.69,36.98-79.97,39.31-3.46-4.07-13.2-19.4-13.5-23.78l15.51,12.39Z" fill="#f2f2f2"/>
    </g>
    <g>
      <path d="M1238.79,257.58c.27,7.15-20.47,10.15-27.16,10.04-35.99-.58-28.09-38.99-64.87-46.95-.11-.22.8-2.37,1.44-2.44l2.39-.24c13.99-3.33,43.16-1.75,54.15,8.22,13.37,12.13,19.8,21.86,34.06,31.37ZM1225.12,258.27c-9-6.84-15.83-13.38-22.38-20.96-8.23-8.95-19.07-13.07-31.39-12.16l17.81,27.64c10.32,7.44,23.57,10.26,35.96,5.47Z" fill="#f2f2f2"/>
      <path d="M1173.54,349.78l-2.26-18.91-23.88-1.21c-4.85-.25-10.49-.6-13.16-5.8l30.43.15c10.72.05,20.94-1.84,30.57-5.44l7.82,27.95c-16.97,12.44-53.39,12.5-72.43,7.99,1.39-3.02,4.39-4.14,7.68-4.04,11.86.36,22.07.37,35.23-.71Z" fill="#f2f2f2"/>
      <path d="M1122.61,353.85c-16.39-.7-30.72-3.01-46.63-7.03l5.77-22.67c1.5-5.9,3.25-11.92,6.14-17.11,13.24,3.94,24.79,6.26,37.82,8.38,2.35.31,4.15,1.76,4.57,4.06-1.44,11.9-3.46,22.36-7.67,34.37ZM1110.73,332.38c4.61-1.53,6-1.94,9.28-2.54l1.02-6.06-28.33-5.27-5.62,21.58c9.57,2.01,19.35,3.48,29.32,4.04.61-2.68.04-5.71-1.18-7l-4.49-4.76Z" fill="#f2f2f2"/>
      <path d="M1086.33,298c-1.32,3.21-2.43,6.03-4.59,7.5l-7.79-4.09c11.56-29.01,29.66-54.39,53.58-73.72,2.16-1.75,5.78-3.04,7.64-1.06-.43,3.07-3.76,5.07-6.2,7.42-18.6,17.96-32.63,39.53-42.65,63.95Z" fill="#f2f2f2"/>
      <path d="M1180.28,313.5c-3.93-8.51-7.26-17.06-12.21-24.54l-12.47-18.88c7.59.62,10.25,6.06,16.53,10.47,0-4.14-.62-9.15-2.26-13.23l-7.95-19.76c3.55.41,5.94,3.54,7.95,6.53l9.61,14.25c4.24,6.3.34,13.56,1.58,20.02,1.5,7.84,6.07,15.08,7.13,23.14-1.52,1.54-5.33,2.49-7.9,2Z" fill="#f2f2f2"/>
      <path d="M1140.51,244.98c-1.29-4.78-2.34-10.11-2.3-15.71l.28-39.21c.02-3.48,1.84-6.35,5.5-7.6l-.1,29.25-.23,18.59c-.06,5-.47,9.21-3.15,14.68Z" fill="#f2f2f2"/>
      <path d="M1065.9,320.62c-1.28,3.02-1.5,8.87.43,10.44s6.31,4.12,3.56,6.56c-4.95,1.23-14.37-3.08-15.2-9.31-.74-5.62,3.67-13.79,8.13-16.84,5.2-3.56,18.37,4.71,14.11,5.37l-2.89.45c-2.5.39-6.89.39-8.14,3.34Z" fill="#f2f2f2"/>
      <path d="M1135.53,218.64c-3.93.4-5.77.41-8.14-2.62l7.7-4.87.44,7.48Z" fill="#f2f2f2"/>
      <g>
        <path d="M1135.87,205.14c-10.03,2.21-17.61-3.52-21.43-11.89-4.58-10.02-3.86-20.21,3.11-29.02,10.28-13,11.45-7.99,18.58-20.85,2.08-3.75,8.94-4.27,11.42-.6,3.38,4.98,1.66,11.85-2.55,15.87l-12.33,11.76c-3.2,3.05-5,7.65-4.03,11.8.9,3.84,2.99,7.48,7.3,9.63l-.07,13.29Z" fill="#f2f2f2"/>
        <path d="M1147.03,206.64l-.02-14.82c5.48-3.99,8.97-8.81,11.23-15.09,1.63-4.54,6.3-16.14,12.72-11.96,1.11,7.76,1.03,16.88-1.33,24.37-3.41,10.83-12.01,16.96-22.59,17.5Z" fill="#f2f2f2"/>
        <g>
          <path d="M1174.41,112.91h-65.72s-15.05-37.93-15.05-37.93l19.13-30.55,58.12-.08,18.21,30.32-14.68,38.23ZM1163,78.86l-21.14-26.21-22.1,26.8,21.19,26.21,22.05-26.8ZM1107.39,83.62c4.37.23,4.53-3.74,3.36-5.86-.76-1.37-4.32-2.48-5.37-1.23-1.88,2.24-.44,6.96,2.01,7.09ZM1179.08,79.72c0-1.99-1.61-3.6-3.6-3.6s-3.6,1.61-3.6,3.6,1.61,3.6,3.6,3.6,3.6-1.61,3.6-3.6Z" fill="#f2f2f2"/>
          <path d="M1161.52,125.94l-39.16.07c-5.75,0-9.5-2.33-10.85-9.06l61.29-.03c-.91,5.73-5.8,9.01-11.28,9.02Z" fill="#f2f2f2"/>
          <path d="M1169.04,40.56l-54.47.02c1.66-4.76,5.71-5.96,9.76-5.95l39.17.15c2.45,0,5.09,3.43,5.53,5.77Z" fill="#f2f2f2"/>
          <path d="M1153.97,145.1c-2.92-5.18-6.35-8.44-11.17-8.8-5.32-.39-8.95,2.53-11.95,7.97-2.65-4.58-4.13-9.03-5.15-14.48l33.24-.17c-.78,5.78-2.38,10.27-4.97,15.48Z" fill="#f2f2f2"/>
          <rect x="1139.73" y="11.86" width="30.64" height="6.94" transform="translate(1137.03 1170.34) rotate(-89.87)" fill="#f2f2f2"/>
          <rect x="1125.99" y=".18" width="6.41" height="30.46" fill="#f2f2f2"/>
          <path d="M1141.86,52.65,1140.96,105.66,1141.18,97.3l15.16-18.2-14.8-18.18-15.34,18.2,14.98,18.18Z" fill="#f2f2f2"/>
          <polygon points="1141.18 97.3 1126.2 79.12 1141.53 60.93 1156.34 79.1 1141.18 97.3" fill="#f2f2f2"/>
        </g>
      </g>
    </g>
  </g>
</svg>